<svg width="320" height="83" viewBox="0 0 320 83" fill="none" xmlns="http://www.w3.org/2000/svg">
<g filter="url(#filter0_d_120_62)">
<path d="M0.451796 27.5099C10.4683 3.24048 95.0164 4.04879 156.952 4.00994C218.887 3.97108 310.486 3.21941 320.452 27.5099C330.417 51.8004 320.452 79.0098 320.452 79.0098H0.451796C0.451796 79.0098 -9.56474 51.7793 0.451796 27.5099Z" fill="url(#paint0_linear_120_62)"/>
<path d="M156.951 3.5098C187.911 3.49037 226.321 3.29273 258.235 6.1387C274.191 7.56153 288.551 9.74666 299.557 13.1065C305.06 14.7864 309.744 16.7667 313.376 19.1045C317.007 21.4418 319.616 24.1574 320.914 27.3203C325.942 39.5761 325.936 52.5477 324.685 62.4317C324.058 67.3772 323.119 71.5595 322.336 74.5069C321.944 75.9807 321.592 77.1467 321.337 77.9453C321.209 78.3447 321.106 78.6529 321.034 78.8614C320.998 78.9654 320.97 79.0449 320.951 79.0987C320.942 79.1254 320.935 79.1463 320.93 79.1602C320.927 79.167 320.925 79.1722 320.924 79.1758C320.923 79.1775 320.922 79.1787 320.922 79.1797V79.1817L320.452 79.0098L320.921 79.1817L320.801 79.5098H0.102539L-0.0175781 79.1826L0.452148 79.0098L-0.0175781 79.1817L-0.0185547 79.1807C-0.0188939 79.1798 -0.0189539 79.1784 -0.0195312 79.1768C-0.0208779 79.1731 -0.0228637 79.1672 -0.0253906 79.1602C-0.0304435 79.1462 -0.0382704 79.1255 -0.0478516 79.0987C-0.06705 79.0448 -0.0949284 78.9654 -0.130859 78.8614C-0.20291 78.6527 -0.307226 78.3449 -0.435547 77.9453C-0.692163 77.1462 -1.04587 75.9796 -1.43945 74.5049C-2.22654 71.5558 -3.17138 67.371 -3.80078 62.4239C-5.05861 52.5371 -5.0647 39.565 -0.0107422 27.3194C2.58444 21.0314 9.94613 16.4724 20.2666 13.1289C30.6211 9.77443 44.1072 7.59525 59.1855 6.17581C89.3451 3.33668 125.993 3.52922 156.951 3.5098Z" stroke="black" stroke-opacity="0.25"/>
<line x1="0.442228" y1="79.5482" x2="320.442" y2="77.51" stroke="#E07A00" stroke-width="3"/>
</g>
<defs>
<filter id="filter0_d_120_62" x="-7" y="0" width="334.881" height="82.0482" filterUnits="userSpaceOnUse" color-interpolation-filters="sRGB">
<feFlood flood-opacity="0" result="BackgroundImageFix"/>
<feColorMatrix in="SourceAlpha" type="matrix" values="0 0 0 0 0 0 0 0 0 0 0 0 0 0 0 0 0 0 127 0" result="hardAlpha"/>
<feOffset dy="-1"/>
<feGaussianBlur stdDeviation="1"/>
<feComposite in2="hardAlpha" operator="out"/>
<feColorMatrix type="matrix" values="0 0 0 0 0 0 0 0 0 0 0 0 0 0 0 0 0 0 0.5 0"/>
<feBlend mode="normal" in2="BackgroundImageFix" result="effect1_dropShadow_120_62"/>
<feBlend mode="normal" in="SourceGraphic" in2="effect1_dropShadow_120_62" result="shape"/>
</filter>
<linearGradient id="paint0_linear_120_62" x1="160.452" y1="8.85622" x2="160.452" y2="79.01" gradientUnits="userSpaceOnUse">
<stop stop-color="#FFC91D"/>
<stop offset="1" stop-color="#FCAA17"/>
</linearGradient>
</defs>
</svg>
