<svg width="320" height="79" viewBox="0 0 320 79" fill="none" xmlns="http://www.w3.org/2000/svg">
<g filter="url(#filter0_d_120_62)">
<path d="M0.451796 26.6901C10.4683 2.75081 95.0164 3.54813 156.952 3.5098C218.887 3.47148 310.486 2.73003 320.452 26.6901C330.417 50.6501 320.452 77.4894 320.452 77.4894H0.451796C0.451796 77.4894 -9.56474 50.6293 0.451796 26.6901Z" fill="url(#paint0_linear_120_62)"/>
<path d="M156.951 3.2598C187.915 3.24064 226.312 3.04555 258.213 5.85159C274.162 7.25452 288.502 9.40831 299.482 12.7149C304.973 14.3682 309.634 16.3133 313.239 18.6026C316.844 20.8914 319.41 23.5352 320.683 26.5938C325.689 38.6296 325.685 51.3786 324.437 61.1065C323.812 65.9722 322.876 70.0872 322.095 72.9864C321.704 74.4359 321.353 75.582 321.099 76.3662C320.972 76.7584 320.868 77.0606 320.797 77.2647C320.761 77.3665 320.734 77.4439 320.715 77.4961C320.705 77.5223 320.698 77.5423 320.693 77.5557C320.691 77.5623 320.69 77.5679 320.688 77.5713C320.688 77.5729 320.687 77.5743 320.687 77.5752V77.5762L320.626 77.7393H0.27832L0.217773 77.5772L0.452148 77.4893L0.217773 77.5762L0.216797 77.5752C0.216467 77.5743 0.216417 77.5729 0.21582 77.5713C0.214541 77.5679 0.21242 77.5624 0.209961 77.5557C0.205073 77.5424 0.197791 77.5229 0.188477 77.4971C0.169546 77.4448 0.141213 77.3668 0.105469 77.2647C0.0339979 77.0605 -0.0685982 76.7585 -0.196289 76.3662C-0.451795 75.5814 -0.805773 74.4339 -1.19824 72.9834C-1.9831 70.0826 -2.925 65.9656 -3.55273 61.0987C-4.80773 51.3683 -4.81085 38.6193 0.220703 26.5938C2.77103 20.4986 10.0342 16.0312 20.3447 12.7364C30.673 9.43586 44.1372 7.28725 59.209 5.88773C89.354 3.08855 125.988 3.27895 156.951 3.2598Z" stroke="black" stroke-opacity="0.2" stroke-width="0.5"/>
<path d="M-3.42627 76.0142L320.442 75.9896" stroke="#E07A00" stroke-width="3"/>
</g>
<defs>
<filter id="filter0_d_120_62" x="-6.5" y="0" width="333.881" height="78.9894" filterUnits="userSpaceOnUse" color-interpolation-filters="sRGB">
<feFlood flood-opacity="0" result="BackgroundImageFix"/>
<feColorMatrix in="SourceAlpha" type="matrix" values="0 0 0 0 0 0 0 0 0 0 0 0 0 0 0 0 0 0 127 0" result="hardAlpha"/>
<feOffset dy="-1"/>
<feGaussianBlur stdDeviation="1"/>
<feComposite in2="hardAlpha" operator="out"/>
<feColorMatrix type="matrix" values="0 0 0 0 0 0 0 0 0 0 0 0 0 0 0 0 0 0 0.5 0"/>
<feBlend mode="normal" in2="BackgroundImageFix" result="effect1_dropShadow_120_62"/>
<feBlend mode="normal" in="SourceGraphic" in2="effect1_dropShadow_120_62" result="shape"/>
</filter>
<linearGradient id="paint0_linear_120_62" x1="160.452" y1="8.29016" x2="160.452" y2="77.4896" gradientUnits="userSpaceOnUse">
<stop stop-color="#FFC91D"/>
<stop offset="1" stop-color="#FCAA17"/>
</linearGradient>
</defs>
</svg>
