<svg width="288" height="75" viewBox="0 0 288 75" fill="none" xmlns="http://www.w3.org/2000/svg">
<g filter="url(#filter0_dd_6_1710)">
<rect x="3" width="282" height="64" rx="10.5205" fill="url(#paint0_linear_6_1710)"/>
<rect x="4.31507" y="1.31507" width="279.37" height="61.3699" rx="9.20548" stroke="url(#paint1_linear_6_1710)" stroke-width="2.63014" style="mix-blend-mode:overlay"/>
<path style="mix-blend-mode:overlay" opacity="0.3" d="M3 0V16.555C40.1036 29.4995 89.8489 37.4172 144.526 37.4172C198.688 37.4172 248.011 29.648 285 16.9196V0H3Z" fill="url(#paint2_linear_6_1710)"/>
<g filter="url(#filter1_d_6_1710)">
<path d="M92.8553 41C92.6646 41 92.5086 40.9393 92.3873 40.818C92.2659 40.6967 92.2053 40.5407 92.2053 40.35V23.45C92.2053 23.2593 92.2659 23.1033 92.3873 22.982C92.5086 22.8607 92.6646 22.8 92.8553 22.8H95.7933C95.9839 22.8 96.1399 22.8607 96.2613 22.982C96.3826 23.1033 96.4433 23.2593 96.4433 23.45V40.35C96.4433 40.5407 96.3826 40.6967 96.2613 40.818C96.1399 40.9393 95.9839 41 95.7933 41H92.8553ZM93.0893 21.5C92.9159 21.5 92.7773 21.448 92.6733 21.344C92.5693 21.24 92.5173 21.0927 92.5173 20.902V18.484C92.5173 18.3107 92.5693 18.172 92.6733 18.068C92.7773 17.9467 92.9159 17.886 93.0893 17.886H95.5073C95.6806 17.886 95.8193 17.9467 95.9233 18.068C96.0446 18.172 96.1053 18.3107 96.1053 18.484V20.902C96.1053 21.0927 96.0446 21.24 95.9233 21.344C95.8193 21.448 95.6806 21.5 95.5073 21.5H93.0893ZM100.617 41C100.444 41 100.297 40.9393 100.175 40.818C100.054 40.6967 99.9935 40.5407 99.9935 40.35V28.13C99.9935 27.9393 100.054 27.7833 100.175 27.662C100.297 27.5407 100.444 27.48 100.617 27.48H103.165C103.356 27.48 103.512 27.5407 103.633 27.662C103.755 27.7833 103.815 27.9393 103.815 28.13V29.144C104.266 28.5893 104.847 28.13 105.557 27.766C106.268 27.402 107.135 27.22 108.157 27.22C109.18 27.22 110.073 27.454 110.835 27.922C111.616 28.3727 112.222 29.04 112.655 29.924C113.106 30.7907 113.332 31.848 113.332 33.096V40.35C113.332 40.5407 113.262 40.6967 113.123 40.818C113.002 40.9393 112.855 41 112.681 41H109.925C109.735 41 109.579 40.9393 109.457 40.818C109.336 40.6967 109.275 40.5407 109.275 40.35V33.252C109.275 32.3333 109.05 31.6227 108.599 31.12C108.166 30.6 107.525 30.34 106.675 30.34C105.861 30.34 105.211 30.6 104.725 31.12C104.24 31.6227 103.997 32.3333 103.997 33.252V40.35C103.997 40.5407 103.937 40.6967 103.815 40.818C103.694 40.9393 103.547 41 103.373 41H100.617ZM122.791 46.72C121.508 46.72 120.442 46.5467 119.593 46.2C118.743 45.8707 118.067 45.4633 117.565 44.978C117.079 44.51 116.733 44.042 116.525 43.574C116.317 43.106 116.204 42.742 116.187 42.482C116.169 42.2913 116.23 42.1353 116.369 42.014C116.507 41.8927 116.663 41.832 116.837 41.832H119.619C119.775 41.832 119.905 41.8667 120.009 41.936C120.13 42.0227 120.225 42.1613 120.295 42.352C120.381 42.56 120.503 42.7767 120.659 43.002C120.815 43.2447 121.049 43.444 121.361 43.6C121.69 43.756 122.123 43.834 122.661 43.834C123.267 43.834 123.77 43.7473 124.169 43.574C124.567 43.4007 124.862 43.106 125.053 42.69C125.261 42.274 125.365 41.7107 125.365 41V39.258C124.949 39.7087 124.42 40.0813 123.779 40.376C123.155 40.6707 122.383 40.818 121.465 40.818C120.563 40.818 119.766 40.6793 119.073 40.402C118.397 40.1073 117.833 39.7 117.383 39.18C116.932 38.6427 116.585 38.0013 116.343 37.256C116.1 36.5107 115.961 35.67 115.927 34.734C115.909 34.266 115.909 33.8067 115.927 33.356C115.961 32.4547 116.1 31.6313 116.343 30.886C116.585 30.1407 116.932 29.4993 117.383 28.962C117.833 28.4073 118.397 27.9827 119.073 27.688C119.766 27.376 120.563 27.22 121.465 27.22C122.418 27.22 123.233 27.402 123.909 27.766C124.585 28.13 125.139 28.5807 125.573 29.118V28.13C125.573 27.9567 125.633 27.8093 125.755 27.688C125.876 27.5493 126.023 27.48 126.197 27.48H128.745C128.918 27.48 129.065 27.5493 129.187 27.688C129.325 27.8093 129.395 27.9567 129.395 28.13L129.421 40.636C129.421 41.936 129.169 43.0367 128.667 43.938C128.164 44.8393 127.419 45.524 126.431 45.992C125.46 46.4773 124.247 46.72 122.791 46.72ZM122.661 37.776C123.285 37.776 123.787 37.6373 124.169 37.36C124.567 37.0653 124.862 36.7013 125.053 36.268C125.243 35.8173 125.347 35.3493 125.365 34.864C125.382 34.6733 125.391 34.4047 125.391 34.058C125.391 33.694 125.382 33.4167 125.365 33.226C125.347 32.7407 125.243 32.2813 125.053 31.848C124.862 31.3973 124.567 31.0333 124.169 30.756C123.787 30.4787 123.285 30.34 122.661 30.34C122.002 30.34 121.482 30.4873 121.101 30.782C120.719 31.0593 120.442 31.432 120.269 31.9C120.095 32.368 119.991 32.8793 119.957 33.434C119.939 33.85 119.939 34.2573 119.957 34.656C119.991 35.228 120.095 35.748 120.269 36.216C120.442 36.684 120.719 37.0653 121.101 37.36C121.482 37.6373 122.002 37.776 122.661 37.776ZM133.321 41C133.147 41 133 40.9393 132.879 40.818C132.757 40.6967 132.697 40.5407 132.697 40.35V28.13C132.697 27.9393 132.757 27.7833 132.879 27.662C133 27.5407 133.147 27.48 133.321 27.48H135.921C136.111 27.48 136.267 27.5407 136.389 27.662C136.51 27.7833 136.571 27.9393 136.571 28.13V40.35C136.571 40.5407 136.51 40.6967 136.389 40.818C136.267 40.9393 136.111 41 135.921 41H133.321ZM133.243 25.4C133.069 25.4 132.922 25.3393 132.801 25.218C132.679 25.0967 132.619 24.9407 132.619 24.75V22.67C132.619 22.4793 132.679 22.3233 132.801 22.202C132.922 22.0633 133.069 21.994 133.243 21.994H135.973C136.163 21.994 136.319 22.0633 136.441 22.202C136.579 22.3233 136.649 22.4793 136.649 22.67V24.75C136.649 24.9407 136.579 25.0967 136.441 25.218C136.319 25.3393 136.163 25.4 135.973 25.4H133.243ZM140.481 41C140.291 41 140.135 40.9393 140.013 40.818C139.892 40.6967 139.831 40.5407 139.831 40.35V23.19C139.831 22.9993 139.892 22.8433 140.013 22.722C140.135 22.6007 140.291 22.54 140.481 22.54H143.081C143.255 22.54 143.402 22.6007 143.523 22.722C143.645 22.8433 143.705 22.9993 143.705 23.19V40.35C143.705 40.5407 143.645 40.6967 143.523 40.818C143.402 40.9393 143.255 41 143.081 41H140.481ZM147.616 41C147.442 41 147.295 40.9393 147.174 40.818C147.052 40.6967 146.992 40.5407 146.992 40.35V28.13C146.992 27.9393 147.052 27.7833 147.174 27.662C147.295 27.5407 147.442 27.48 147.616 27.48H150.216C150.406 27.48 150.562 27.5407 150.684 27.662C150.805 27.7833 150.866 27.9393 150.866 28.13V40.35C150.866 40.5407 150.805 40.6967 150.684 40.818C150.562 40.9393 150.406 41 150.216 41H147.616ZM147.538 25.4C147.364 25.4 147.217 25.3393 147.096 25.218C146.974 25.0967 146.914 24.9407 146.914 24.75V22.67C146.914 22.4793 146.974 22.3233 147.096 22.202C147.217 22.0633 147.364 21.994 147.538 21.994H150.268C150.458 21.994 150.614 22.0633 150.736 22.202C150.874 22.3233 150.944 22.4793 150.944 22.67V24.75C150.944 24.9407 150.874 25.0967 150.736 25.218C150.614 25.3393 150.458 25.4 150.268 25.4H147.538ZM154.126 41C153.953 41 153.806 40.9393 153.684 40.818C153.563 40.6967 153.502 40.5407 153.502 40.35V38.608C153.502 38.4347 153.537 38.2787 153.606 38.14C153.693 38.0013 153.788 37.8713 153.892 37.75L160.262 30.496H154.36C154.17 30.496 154.014 30.4353 153.892 30.314C153.771 30.1927 153.71 30.0453 153.71 29.872V28.13C153.71 27.9393 153.771 27.7833 153.892 27.662C154.014 27.5407 154.17 27.48 154.36 27.48H164.5C164.691 27.48 164.847 27.5407 164.968 27.662C165.09 27.7833 165.15 27.9393 165.15 28.13V30.002C165.15 30.158 165.116 30.2967 165.046 30.418C164.977 30.5393 164.89 30.6607 164.786 30.782L158.546 37.984H165.046C165.22 37.984 165.367 38.0447 165.488 38.166C165.61 38.2873 165.67 38.4347 165.67 38.608V40.35C165.67 40.5407 165.61 40.6967 165.488 40.818C165.367 40.9393 165.22 41 165.046 41H154.126ZM174.072 41.26C172.806 41.26 171.688 41.026 170.718 40.558C169.764 40.09 169.01 39.414 168.456 38.53C167.901 37.6287 167.598 36.554 167.546 35.306C167.528 35.0287 167.52 34.682 167.52 34.266C167.52 33.8327 167.528 33.4773 167.546 33.2C167.598 31.9347 167.892 30.86 168.43 29.976C168.984 29.0747 169.747 28.39 170.718 27.922C171.688 27.454 172.806 27.22 174.072 27.22C175.233 27.22 176.221 27.3847 177.036 27.714C177.85 28.026 178.518 28.4247 179.038 28.91C179.558 29.3953 179.939 29.9067 180.182 30.444C180.442 30.964 180.58 31.4233 180.598 31.822C180.615 31.9953 180.554 32.1513 180.416 32.29C180.294 32.4113 180.147 32.472 179.974 32.472H177.192C177.018 32.472 176.88 32.4287 176.776 32.342C176.689 32.238 176.602 32.0993 176.516 31.926C176.273 31.3193 175.961 30.886 175.58 30.626C175.198 30.366 174.722 30.236 174.15 30.236C173.37 30.236 172.754 30.4873 172.304 30.99C171.853 31.4927 171.61 32.2727 171.576 33.33C171.558 34.006 171.558 34.6213 171.576 35.176C171.628 36.2507 171.87 37.0307 172.304 37.516C172.754 38.0013 173.37 38.244 174.15 38.244C174.756 38.244 175.242 38.114 175.606 37.854C175.97 37.594 176.273 37.1607 176.516 36.554C176.585 36.3807 176.672 36.2507 176.776 36.164C176.88 36.06 177.018 36.008 177.192 36.008H179.974C180.147 36.008 180.294 36.0773 180.416 36.216C180.554 36.3373 180.615 36.4847 180.598 36.658C180.58 36.9527 180.494 37.2993 180.338 37.698C180.199 38.0967 179.965 38.504 179.636 38.92C179.324 39.336 178.916 39.726 178.414 40.09C177.911 40.4367 177.296 40.7227 176.568 40.948C175.857 41.156 175.025 41.26 174.072 41.26ZM189.18 41.26C187.186 41.26 185.6 40.7053 184.422 39.596C183.26 38.4867 182.645 36.8747 182.576 34.76C182.576 34.6213 182.576 34.4393 182.576 34.214C182.576 33.9713 182.576 33.7807 182.576 33.642C182.645 32.3073 182.948 31.1633 183.486 30.21C184.023 29.2393 184.777 28.5027 185.748 28C186.718 27.48 187.854 27.22 189.154 27.22C190.61 27.22 191.823 27.5233 192.794 28.13C193.782 28.7193 194.518 29.534 195.004 30.574C195.506 31.5967 195.758 32.7753 195.758 34.11V34.708C195.758 34.8813 195.688 35.0287 195.55 35.15C195.428 35.2713 195.281 35.332 195.108 35.332H186.606C186.606 35.3493 186.606 35.384 186.606 35.436C186.606 35.4707 186.606 35.5053 186.606 35.54C186.623 36.0947 186.727 36.606 186.918 37.074C187.126 37.5247 187.412 37.8887 187.776 38.166C188.157 38.4433 188.608 38.582 189.128 38.582C189.561 38.582 189.916 38.5213 190.194 38.4C190.471 38.2787 190.696 38.1313 190.87 37.958C191.06 37.7847 191.199 37.6373 191.286 37.516C191.442 37.3427 191.563 37.2387 191.65 37.204C191.754 37.152 191.91 37.126 192.118 37.126H194.822C194.995 37.126 195.134 37.178 195.238 37.282C195.359 37.3687 195.411 37.4987 195.394 37.672C195.376 37.9493 195.229 38.296 194.952 38.712C194.692 39.1107 194.302 39.5093 193.782 39.908C193.262 40.2893 192.612 40.61 191.832 40.87C191.069 41.13 190.185 41.26 189.18 41.26ZM186.606 32.966H191.702V32.914C191.702 32.29 191.598 31.7527 191.39 31.302C191.199 30.834 190.913 30.47 190.532 30.21C190.15 29.95 189.691 29.82 189.154 29.82C188.616 29.82 188.157 29.95 187.776 30.21C187.394 30.47 187.1 30.834 186.892 31.302C186.701 31.7527 186.606 32.29 186.606 32.914V32.966Z" fill="white"/>
</g>
<g filter="url(#filter2_d_6_1710)">
<path d="M41.1862 46.8256C40.7796 47.2189 40.138 46.9038 40.138 46.3108V39.1201H26.6303C26.2822 39.1201 26 38.8122 26 38.4323V26.5677C26 26.1878 26.2822 25.8799 26.6303 25.8799H40.138V18.6892C40.138 18.0962 40.7796 17.7811 41.1862 18.1744L56 32.5L41.1862 46.8256Z" fill="white"/>
</g>
</g>
<defs>
<filter id="filter0_dd_6_1710" x="0" y="0" width="288" height="75" filterUnits="userSpaceOnUse" color-interpolation-filters="sRGB">
<feFlood flood-opacity="0" result="BackgroundImageFix"/>
<feColorMatrix in="SourceAlpha" type="matrix" values="0 0 0 0 0 0 0 0 0 0 0 0 0 0 0 0 0 0 127 0" result="hardAlpha"/>
<feOffset dy="5.26027"/>
<feComposite in2="hardAlpha" operator="out"/>
<feColorMatrix type="matrix" values="0 0 0 0 0.0470588 0 0 0 0 0.207843 0 0 0 0 0.509804 0 0 0 1 0"/>
<feBlend mode="normal" in2="BackgroundImageFix" result="effect1_dropShadow_6_1710"/>
<feColorMatrix in="SourceAlpha" type="matrix" values="0 0 0 0 0 0 0 0 0 0 0 0 0 0 0 0 0 0 127 0" result="hardAlpha"/>
<feOffset dy="8"/>
<feGaussianBlur stdDeviation="1.5"/>
<feComposite in2="hardAlpha" operator="out"/>
<feColorMatrix type="matrix" values="0 0 0 0 0 0 0 0 0 0 0 0 0 0 0 0 0 0 0.25 0"/>
<feBlend mode="normal" in2="effect1_dropShadow_6_1710" result="effect2_dropShadow_6_1710"/>
<feBlend mode="normal" in="SourceGraphic" in2="effect2_dropShadow_6_1710" result="shape"/>
</filter>
<filter id="filter1_d_6_1710" x="90.2053" y="17.8862" width="107.552" height="33.834" filterUnits="userSpaceOnUse" color-interpolation-filters="sRGB">
<feFlood flood-opacity="0" result="BackgroundImageFix"/>
<feColorMatrix in="SourceAlpha" type="matrix" values="0 0 0 0 0 0 0 0 0 0 0 0 0 0 0 0 0 0 127 0" result="hardAlpha"/>
<feOffset dy="3"/>
<feGaussianBlur stdDeviation="1"/>
<feComposite in2="hardAlpha" operator="out"/>
<feColorMatrix type="matrix" values="0 0 0 0 0 0 0 0 0 0 0 0 0 0 0 0 0 0 0.2 0"/>
<feBlend mode="luminosity" in2="BackgroundImageFix" result="effect1_dropShadow_6_1710"/>
<feBlend mode="normal" in="SourceGraphic" in2="effect1_dropShadow_6_1710" result="shape"/>
</filter>
<filter id="filter2_d_6_1710" x="21" y="14" width="40" height="41" filterUnits="userSpaceOnUse" color-interpolation-filters="sRGB">
<feFlood flood-opacity="0" result="BackgroundImageFix"/>
<feColorMatrix in="SourceAlpha" type="matrix" values="0 0 0 0 0 0 0 0 0 0 0 0 0 0 0 0 0 0 127 0" result="hardAlpha"/>
<feOffset dy="3"/>
<feGaussianBlur stdDeviation="1"/>
<feComposite in2="hardAlpha" operator="out"/>
<feColorMatrix type="matrix" values="0 0 0 0 0 0 0 0 0 0 0 0 0 0 0 0 0 0 0.2 0"/>
<feBlend mode="luminosity" in2="BackgroundImageFix" result="effect1_dropShadow_6_1710"/>
<feBlend mode="normal" in="SourceGraphic" in2="effect1_dropShadow_6_1710" result="shape"/>
</filter>
<linearGradient id="paint0_linear_6_1710" x1="144" y1="0" x2="144" y2="64" gradientUnits="userSpaceOnUse">
<stop stop-color="#02AAF7"/>
<stop offset="1" stop-color="#0147E8"/>
</linearGradient>
<linearGradient id="paint1_linear_6_1710" x1="144" y1="0" x2="144" y2="64" gradientUnits="userSpaceOnUse">
<stop stop-color="white"/>
<stop offset="1" stop-color="white" stop-opacity="0.5"/>
</linearGradient>
<linearGradient id="paint2_linear_6_1710" x1="144" y1="-1.75342" x2="144" y2="37.4172" gradientUnits="userSpaceOnUse">
<stop stop-color="white" stop-opacity="0"/>
<stop offset="1" stop-color="white"/>
</linearGradient>
</defs>
</svg>
