<svg width="288" height="75" viewBox="0 0 288 75" fill="none" xmlns="http://www.w3.org/2000/svg">
<g filter="url(#filter0_dd_6_1712)">
<rect x="3" width="282" height="64" rx="10.5205" fill="url(#paint0_linear_6_1712)"/>
<rect x="4.31507" y="1.31507" width="279.37" height="61.3699" rx="9.20548" stroke="url(#paint1_linear_6_1712)" stroke-width="2.63014" style="mix-blend-mode:overlay"/>
<path style="mix-blend-mode:overlay" opacity="0.3" d="M3 0V16.555C40.1036 29.4995 89.8489 37.4172 144.526 37.4172C198.688 37.4172 248.011 29.648 285 16.9196V0H3Z" fill="url(#paint2_linear_6_1712)"/>
<g filter="url(#filter1_d_6_1712)">
<path d="M108.047 41C107.856 41 107.7 40.9393 107.579 40.818C107.457 40.6967 107.397 40.5407 107.397 40.35V23.45C107.397 23.2593 107.457 23.1033 107.579 22.982C107.7 22.8607 107.856 22.8 108.047 22.8H110.803C110.993 22.8 111.149 22.8607 111.271 22.982C111.392 23.1033 111.453 23.2593 111.453 23.45V29.378L116.809 23.294C116.878 23.19 116.991 23.086 117.147 22.982C117.32 22.8607 117.545 22.8 117.823 22.8H120.969C121.125 22.8 121.255 22.8607 121.359 22.982C121.463 23.086 121.515 23.2073 121.515 23.346C121.515 23.4673 121.48 23.5713 121.411 23.658L114.729 31.51L121.905 40.142C121.974 40.2113 122.009 40.3153 122.009 40.454C122.009 40.5927 121.957 40.7227 121.853 40.844C121.749 40.948 121.619 41 121.463 41H118.213C117.901 41 117.667 40.9307 117.511 40.792C117.355 40.6533 117.251 40.558 117.199 40.506L111.453 33.85V40.35C111.453 40.5407 111.392 40.6967 111.271 40.818C111.149 40.9393 110.993 41 110.803 41H108.047ZM124.595 41C124.404 41 124.248 40.9393 124.127 40.818C124.005 40.6967 123.945 40.5407 123.945 40.35V23.19C123.945 22.9993 124.005 22.8433 124.127 22.722C124.248 22.6007 124.404 22.54 124.595 22.54H127.195C127.368 22.54 127.515 22.6007 127.637 22.722C127.758 22.8433 127.819 22.9993 127.819 23.19V40.35C127.819 40.5407 127.758 40.6967 127.637 40.818C127.515 40.9393 127.368 41 127.195 41H124.595ZM135.083 41.26C134.164 41.26 133.341 41.0867 132.613 40.74C131.885 40.376 131.304 39.8907 130.871 39.284C130.437 38.6773 130.221 38.0013 130.221 37.256C130.221 36.0253 130.715 35.0547 131.703 34.344C132.708 33.6333 134.025 33.148 135.655 32.888L139.061 32.394V31.926C139.061 31.25 138.905 30.73 138.593 30.366C138.281 30.002 137.735 29.82 136.955 29.82C136.383 29.82 135.923 29.9327 135.577 30.158C135.23 30.3833 134.961 30.678 134.771 31.042C134.632 31.2673 134.433 31.38 134.173 31.38H131.703C131.512 31.38 131.365 31.328 131.261 31.224C131.157 31.1027 131.113 30.964 131.131 30.808C131.131 30.5133 131.243 30.1667 131.469 29.768C131.694 29.3693 132.041 28.9793 132.509 28.598C132.977 28.1993 133.575 27.87 134.303 27.61C135.031 27.35 135.923 27.22 136.981 27.22C138.073 27.22 139.009 27.35 139.789 27.61C140.569 27.87 141.193 28.234 141.661 28.702C142.129 29.17 142.475 29.716 142.701 30.34C142.926 30.9467 143.039 31.6053 143.039 32.316V40.35C143.039 40.5407 142.978 40.6967 142.857 40.818C142.735 40.9393 142.579 41 142.389 41H139.841C139.667 41 139.52 40.9393 139.399 40.818C139.277 40.6967 139.217 40.5407 139.217 40.35V39.388C138.991 39.7173 138.688 40.0293 138.307 40.324C137.925 40.6013 137.466 40.8267 136.929 41C136.409 41.1733 135.793 41.26 135.083 41.26ZM136.123 38.556C136.695 38.556 137.206 38.4347 137.657 38.192C138.107 37.9493 138.463 37.5767 138.723 37.074C138.983 36.5713 139.113 35.9387 139.113 35.176V34.734L136.695 35.124C135.759 35.28 135.074 35.514 134.641 35.826C134.207 36.138 133.991 36.5193 133.991 36.97C133.991 37.2993 134.086 37.5853 134.277 37.828C134.485 38.0707 134.753 38.2527 135.083 38.374C135.412 38.4953 135.759 38.556 136.123 38.556ZM151.517 41.26C150.442 41.26 149.515 41.1387 148.735 40.896C147.972 40.636 147.348 40.324 146.863 39.96C146.395 39.596 146.04 39.232 145.797 38.868C145.572 38.4867 145.45 38.166 145.433 37.906C145.416 37.7153 145.476 37.5593 145.615 37.438C145.754 37.3167 145.892 37.256 146.031 37.256H148.553C148.605 37.256 148.657 37.2647 148.709 37.282C148.761 37.2993 148.813 37.3427 148.865 37.412C149.09 37.568 149.324 37.75 149.567 37.958C149.81 38.1487 150.087 38.3133 150.399 38.452C150.728 38.5907 151.136 38.66 151.621 38.66C152.193 38.66 152.678 38.5473 153.077 38.322C153.476 38.0793 153.675 37.7413 153.675 37.308C153.675 36.996 153.58 36.736 153.389 36.528C153.216 36.32 152.878 36.1293 152.375 35.956C151.872 35.7827 151.127 35.592 150.139 35.384C149.203 35.176 148.406 34.8987 147.747 34.552C147.088 34.2053 146.594 33.772 146.265 33.252C145.936 32.7147 145.771 32.0733 145.771 31.328C145.771 30.652 145.979 30.002 146.395 29.378C146.828 28.754 147.461 28.2427 148.293 27.844C149.125 27.428 150.165 27.22 151.413 27.22C152.366 27.22 153.198 27.3413 153.909 27.584C154.637 27.8093 155.244 28.104 155.729 28.468C156.214 28.8147 156.578 29.1787 156.821 29.56C157.081 29.924 157.22 30.2447 157.237 30.522C157.254 30.6953 157.202 30.8427 157.081 30.964C156.96 31.0853 156.821 31.146 156.665 31.146H154.351C154.264 31.146 154.186 31.1373 154.117 31.12C154.048 31.0853 153.987 31.042 153.935 30.99C153.727 30.8513 153.51 30.6953 153.285 30.522C153.077 30.3313 152.826 30.1667 152.531 30.028C152.236 29.8893 151.855 29.82 151.387 29.82C150.815 29.82 150.373 29.95 150.061 30.21C149.766 30.4527 149.619 30.7647 149.619 31.146C149.619 31.3887 149.697 31.614 149.853 31.822C150.009 32.03 150.33 32.2207 150.815 32.394C151.3 32.5673 152.037 32.7493 153.025 32.94C154.204 33.148 155.14 33.46 155.833 33.876C156.526 34.292 157.02 34.7773 157.315 35.332C157.627 35.8693 157.783 36.45 157.783 37.074C157.783 37.8887 157.54 38.6167 157.055 39.258C156.57 39.882 155.859 40.376 154.923 40.74C154.004 41.0867 152.869 41.26 151.517 41.26ZM160.903 41C160.729 41 160.582 40.9393 160.461 40.818C160.339 40.6967 160.279 40.5407 160.279 40.35V28.13C160.279 27.9393 160.339 27.7833 160.461 27.662C160.582 27.5407 160.729 27.48 160.903 27.48H163.503C163.693 27.48 163.849 27.5407 163.971 27.662C164.092 27.7833 164.153 27.9393 164.153 28.13V40.35C164.153 40.5407 164.092 40.6967 163.971 40.818C163.849 40.9393 163.693 41 163.503 41H160.903ZM160.825 25.4C160.651 25.4 160.504 25.3393 160.383 25.218C160.261 25.0967 160.201 24.9407 160.201 24.75V22.67C160.201 22.4793 160.261 22.3233 160.383 22.202C160.504 22.0633 160.651 21.994 160.825 21.994H163.555C163.745 21.994 163.901 22.0633 164.023 22.202C164.161 22.3233 164.231 22.4793 164.231 22.67V24.75C164.231 24.9407 164.161 25.0967 164.023 25.218C163.901 25.3393 163.745 25.4 163.555 25.4H160.825ZM168.063 41C167.873 41 167.717 40.9393 167.595 40.818C167.474 40.6967 167.413 40.5407 167.413 40.35V23.19C167.413 22.9993 167.474 22.8433 167.595 22.722C167.717 22.6007 167.873 22.54 168.063 22.54H170.611C170.785 22.54 170.932 22.6007 171.053 22.722C171.175 22.8433 171.235 22.9993 171.235 23.19V31.978L175.239 27.922C175.378 27.8007 175.499 27.6967 175.603 27.61C175.725 27.5233 175.907 27.48 176.149 27.48H179.087C179.261 27.48 179.399 27.5407 179.503 27.662C179.607 27.766 179.659 27.896 179.659 28.052C179.659 28.1213 179.642 28.1993 179.607 28.286C179.573 28.3727 179.512 28.442 179.425 28.494L174.407 33.538L180.075 40.012C180.231 40.1507 180.309 40.2893 180.309 40.428C180.309 40.584 180.249 40.7227 180.127 40.844C180.023 40.948 179.893 41 179.737 41H176.721C176.461 41 176.271 40.9567 176.149 40.87C176.045 40.7833 175.924 40.6793 175.785 40.558L171.235 35.462V40.35C171.235 40.5407 171.175 40.6967 171.053 40.818C170.932 40.9393 170.785 41 170.611 41H168.063Z" fill="white"/>
</g>
<g filter="url(#filter2_d_6_1712)">
<path d="M41.1862 46.8256C40.7796 47.2189 40.138 46.9038 40.138 46.3108V39.1201H26.6303C26.2822 39.1201 26 38.8122 26 38.4323V26.5677C26 26.1878 26.2822 25.8799 26.6303 25.8799H40.138V18.6892C40.138 18.0962 40.7796 17.7811 41.1862 18.1744L56 32.5L41.1862 46.8256Z" fill="white"/>
</g>
</g>
<defs>
<filter id="filter0_dd_6_1712" x="0" y="0" width="288" height="75" filterUnits="userSpaceOnUse" color-interpolation-filters="sRGB">
<feFlood flood-opacity="0" result="BackgroundImageFix"/>
<feColorMatrix in="SourceAlpha" type="matrix" values="0 0 0 0 0 0 0 0 0 0 0 0 0 0 0 0 0 0 127 0" result="hardAlpha"/>
<feOffset dy="5.26027"/>
<feComposite in2="hardAlpha" operator="out"/>
<feColorMatrix type="matrix" values="0 0 0 0 0.0470588 0 0 0 0 0.207843 0 0 0 0 0.509804 0 0 0 1 0"/>
<feBlend mode="normal" in2="BackgroundImageFix" result="effect1_dropShadow_6_1712"/>
<feColorMatrix in="SourceAlpha" type="matrix" values="0 0 0 0 0 0 0 0 0 0 0 0 0 0 0 0 0 0 127 0" result="hardAlpha"/>
<feOffset dy="8"/>
<feGaussianBlur stdDeviation="1.5"/>
<feComposite in2="hardAlpha" operator="out"/>
<feColorMatrix type="matrix" values="0 0 0 0 0 0 0 0 0 0 0 0 0 0 0 0 0 0 0.25 0"/>
<feBlend mode="normal" in2="effect1_dropShadow_6_1712" result="effect2_dropShadow_6_1712"/>
<feBlend mode="normal" in="SourceGraphic" in2="effect2_dropShadow_6_1712" result="shape"/>
</filter>
<filter id="filter1_d_6_1712" x="105.397" y="21.9941" width="76.9127" height="24.2656" filterUnits="userSpaceOnUse" color-interpolation-filters="sRGB">
<feFlood flood-opacity="0" result="BackgroundImageFix"/>
<feColorMatrix in="SourceAlpha" type="matrix" values="0 0 0 0 0 0 0 0 0 0 0 0 0 0 0 0 0 0 127 0" result="hardAlpha"/>
<feOffset dy="3"/>
<feGaussianBlur stdDeviation="1"/>
<feComposite in2="hardAlpha" operator="out"/>
<feColorMatrix type="matrix" values="0 0 0 0 0 0 0 0 0 0 0 0 0 0 0 0 0 0 0.2 0"/>
<feBlend mode="luminosity" in2="BackgroundImageFix" result="effect1_dropShadow_6_1712"/>
<feBlend mode="normal" in="SourceGraphic" in2="effect1_dropShadow_6_1712" result="shape"/>
</filter>
<filter id="filter2_d_6_1712" x="21" y="14" width="40" height="41" filterUnits="userSpaceOnUse" color-interpolation-filters="sRGB">
<feFlood flood-opacity="0" result="BackgroundImageFix"/>
<feColorMatrix in="SourceAlpha" type="matrix" values="0 0 0 0 0 0 0 0 0 0 0 0 0 0 0 0 0 0 127 0" result="hardAlpha"/>
<feOffset dy="3"/>
<feGaussianBlur stdDeviation="1"/>
<feComposite in2="hardAlpha" operator="out"/>
<feColorMatrix type="matrix" values="0 0 0 0 0 0 0 0 0 0 0 0 0 0 0 0 0 0 0.2 0"/>
<feBlend mode="luminosity" in2="BackgroundImageFix" result="effect1_dropShadow_6_1712"/>
<feBlend mode="normal" in="SourceGraphic" in2="effect1_dropShadow_6_1712" result="shape"/>
</filter>
<linearGradient id="paint0_linear_6_1712" x1="144" y1="0" x2="144" y2="64" gradientUnits="userSpaceOnUse">
<stop stop-color="#5EFF03"/>
<stop offset="1" stop-color="#05716A"/>
</linearGradient>
<linearGradient id="paint1_linear_6_1712" x1="144" y1="0" x2="144" y2="64" gradientUnits="userSpaceOnUse">
<stop stop-color="white"/>
<stop offset="1" stop-color="white" stop-opacity="0.5"/>
</linearGradient>
<linearGradient id="paint2_linear_6_1712" x1="144" y1="-1.75342" x2="144" y2="37.4172" gradientUnits="userSpaceOnUse">
<stop stop-color="white" stop-opacity="0"/>
<stop offset="1" stop-color="white"/>
</linearGradient>
</defs>
</svg>
