<svg width="282" height="70" viewBox="0 0 282 70" fill="none" xmlns="http://www.w3.org/2000/svg">
<g filter="url(#filter0_d_6_1709)">
<rect width="282" height="64" rx="10.5205" fill="url(#paint0_linear_6_1709)"/>
<rect x="1.31507" y="1.31507" width="279.37" height="61.3699" rx="9.20548" stroke="url(#paint1_linear_6_1709)" stroke-width="2.63014" style="mix-blend-mode:overlay"/>
<path style="mix-blend-mode:overlay" opacity="0.3" d="M0 0V16.555C37.1036 29.4995 86.8489 37.4172 141.526 37.4172C195.688 37.4172 245.011 29.648 282 16.9196V0H0Z" fill="url(#paint2_linear_6_1709)"/>
<g filter="url(#filter1_d_6_1709)">
<path d="M113.747 41.26C112.083 41.26 110.687 41.0173 109.561 40.532C108.451 40.0467 107.611 39.414 107.039 38.634C106.467 37.854 106.163 37.022 106.129 36.138C106.129 35.9993 106.181 35.878 106.285 35.774C106.389 35.6527 106.519 35.592 106.675 35.592H109.457C109.682 35.592 109.855 35.644 109.977 35.748C110.098 35.8347 110.211 35.9473 110.315 36.086C110.436 36.3807 110.627 36.6667 110.887 36.944C111.164 37.2213 111.537 37.4553 112.005 37.646C112.473 37.8193 113.053 37.906 113.747 37.906C114.873 37.906 115.714 37.724 116.269 37.36C116.841 36.996 117.127 36.502 117.127 35.878C117.127 35.4273 116.971 35.0633 116.659 34.786C116.364 34.5087 115.887 34.2573 115.229 34.032C114.587 33.8067 113.729 33.564 112.655 33.304C111.355 33.0267 110.245 32.6713 109.327 32.238C108.425 31.7873 107.741 31.2153 107.273 30.522C106.822 29.8113 106.597 28.936 106.597 27.896C106.597 26.856 106.883 25.9373 107.455 25.14C108.027 24.3253 108.833 23.6927 109.873 23.242C110.913 22.774 112.152 22.54 113.591 22.54C114.752 22.54 115.775 22.696 116.659 23.008C117.56 23.32 118.305 23.7273 118.895 24.23C119.501 24.7327 119.961 25.27 120.273 25.842C120.585 26.414 120.749 26.9687 120.767 27.506C120.767 27.6447 120.715 27.7747 120.611 27.896C120.507 28 120.377 28.052 120.221 28.052H117.309C117.135 28.052 116.979 28.0173 116.841 27.948C116.702 27.8787 116.589 27.7573 116.503 27.584C116.399 27.1333 116.087 26.7433 115.567 26.414C115.064 26.0673 114.405 25.894 113.591 25.894C112.741 25.894 112.065 26.05 111.563 26.362C111.077 26.674 110.835 27.1507 110.835 27.792C110.835 28.208 110.956 28.5633 111.199 28.858C111.459 29.1353 111.883 29.3867 112.473 29.612C113.079 29.82 113.877 30.054 114.865 30.314C116.39 30.626 117.629 30.9987 118.583 31.432C119.536 31.8653 120.238 32.4287 120.689 33.122C121.139 33.798 121.365 34.656 121.365 35.696C121.365 36.8573 121.035 37.854 120.377 38.686C119.735 39.518 118.843 40.1593 117.699 40.61C116.572 41.0433 115.255 41.26 113.747 41.26ZM124.493 41C124.32 41 124.173 40.9393 124.051 40.818C123.93 40.6967 123.869 40.5407 123.869 40.35V28.13C123.869 27.9393 123.93 27.7833 124.051 27.662C124.173 27.5407 124.32 27.48 124.493 27.48H127.093C127.284 27.48 127.44 27.5407 127.561 27.662C127.683 27.7833 127.743 27.9393 127.743 28.13V40.35C127.743 40.5407 127.683 40.6967 127.561 40.818C127.44 40.9393 127.284 41 127.093 41H124.493ZM131.628 41C131.455 41 131.308 40.9393 131.186 40.818C131.065 40.6967 131.004 40.5407 131.004 40.35V28.13C131.004 27.9393 131.065 27.7833 131.186 27.662C131.308 27.5407 131.455 27.48 131.628 27.48H134.176C134.367 27.48 134.523 27.5407 134.644 27.662C134.766 27.7833 134.826 27.9393 134.826 28.13V29.144C135.277 28.5893 135.858 28.13 136.568 27.766C137.279 27.402 138.146 27.22 139.168 27.22C140.191 27.22 141.084 27.454 141.846 27.922C142.626 28.3727 143.233 29.04 143.666 29.924C144.117 30.7907 144.342 31.848 144.342 33.096V40.35C144.342 40.5407 144.273 40.6967 144.134 40.818C144.013 40.9393 143.866 41 143.692 41H140.936C140.746 41 140.59 40.9393 140.468 40.818C140.347 40.6967 140.286 40.5407 140.286 40.35V33.252C140.286 32.3333 140.061 31.6227 139.61 31.12C139.177 30.6 138.536 30.34 137.686 30.34C136.872 30.34 136.222 30.6 135.736 31.12C135.251 31.6227 135.008 32.3333 135.008 33.252V40.35C135.008 40.5407 134.948 40.6967 134.826 40.818C134.705 40.9393 134.558 41 134.384 41H131.628ZM151.435 41.26C150.517 41.26 149.693 41.0867 148.965 40.74C148.237 40.376 147.657 39.8907 147.223 39.284C146.79 38.6773 146.573 38.0013 146.573 37.256C146.573 36.0253 147.067 35.0547 148.055 34.344C149.061 33.6333 150.378 33.148 152.007 32.888L155.413 32.394V31.926C155.413 31.25 155.257 30.73 154.945 30.366C154.633 30.002 154.087 29.82 153.307 29.82C152.735 29.82 152.276 29.9327 151.929 30.158C151.583 30.3833 151.314 30.678 151.123 31.042C150.985 31.2673 150.785 31.38 150.525 31.38H148.055C147.865 31.38 147.717 31.328 147.613 31.224C147.509 31.1027 147.466 30.964 147.483 30.808C147.483 30.5133 147.596 30.1667 147.821 29.768C148.047 29.3693 148.393 28.9793 148.861 28.598C149.329 28.1993 149.927 27.87 150.655 27.61C151.383 27.35 152.276 27.22 153.333 27.22C154.425 27.22 155.361 27.35 156.141 27.61C156.921 27.87 157.545 28.234 158.013 28.702C158.481 29.17 158.828 29.716 159.053 30.34C159.279 30.9467 159.391 31.6053 159.391 32.316V40.35C159.391 40.5407 159.331 40.6967 159.209 40.818C159.088 40.9393 158.932 41 158.741 41H156.193C156.02 41 155.873 40.9393 155.751 40.818C155.63 40.6967 155.569 40.5407 155.569 40.35V39.388C155.344 39.7173 155.041 40.0293 154.659 40.324C154.278 40.6013 153.819 40.8267 153.281 41C152.761 41.1733 152.146 41.26 151.435 41.26ZM152.475 38.556C153.047 38.556 153.559 38.4347 154.009 38.192C154.46 37.9493 154.815 37.5767 155.075 37.074C155.335 36.5713 155.465 35.9387 155.465 35.176V34.734L153.047 35.124C152.111 35.28 151.427 35.514 150.993 35.826C150.56 36.138 150.343 36.5193 150.343 36.97C150.343 37.2993 150.439 37.5853 150.629 37.828C150.837 38.0707 151.106 38.2527 151.435 38.374C151.765 38.4953 152.111 38.556 152.475 38.556ZM166.968 41C166.708 41 166.509 40.9393 166.37 40.818C166.249 40.6793 166.145 40.5233 166.058 40.35L161.17 28.286C161.135 28.2167 161.118 28.1387 161.118 28.052C161.118 27.896 161.17 27.766 161.274 27.662C161.395 27.5407 161.534 27.48 161.69 27.48H164.212C164.437 27.48 164.602 27.5407 164.706 27.662C164.827 27.7833 164.905 27.896 164.94 28L168.138 36.58L171.336 28C171.388 27.896 171.466 27.7833 171.57 27.662C171.691 27.5407 171.856 27.48 172.064 27.48H174.586C174.742 27.48 174.872 27.5407 174.976 27.662C175.097 27.766 175.158 27.896 175.158 28.052C175.158 28.1387 175.149 28.2167 175.132 28.286L170.218 40.35C170.149 40.5233 170.045 40.6793 169.906 40.818C169.767 40.9393 169.568 41 169.308 41H166.968Z" fill="white"/>
</g>
</g>
<defs>
<filter id="filter0_d_6_1709" x="0" y="0" width="282" height="69.2603" filterUnits="userSpaceOnUse" color-interpolation-filters="sRGB">
<feFlood flood-opacity="0" result="BackgroundImageFix"/>
<feColorMatrix in="SourceAlpha" type="matrix" values="0 0 0 0 0 0 0 0 0 0 0 0 0 0 0 0 0 0 127 0" result="hardAlpha"/>
<feOffset dy="5.26027"/>
<feComposite in2="hardAlpha" operator="out"/>
<feColorMatrix type="matrix" values="0 0 0 0 0.352941 0 0 0 0 0 0 0 0 0 0.180392 0 0 0 1 0"/>
<feBlend mode="normal" in2="BackgroundImageFix" result="effect1_dropShadow_6_1709"/>
<feBlend mode="normal" in="SourceGraphic" in2="effect1_dropShadow_6_1709" result="shape"/>
</filter>
<filter id="filter1_d_6_1709" x="104.129" y="22.54" width="73.0294" height="23.7197" filterUnits="userSpaceOnUse" color-interpolation-filters="sRGB">
<feFlood flood-opacity="0" result="BackgroundImageFix"/>
<feColorMatrix in="SourceAlpha" type="matrix" values="0 0 0 0 0 0 0 0 0 0 0 0 0 0 0 0 0 0 127 0" result="hardAlpha"/>
<feOffset dy="3"/>
<feGaussianBlur stdDeviation="1"/>
<feComposite in2="hardAlpha" operator="out"/>
<feColorMatrix type="matrix" values="0 0 0 0 0 0 0 0 0 0 0 0 0 0 0 0 0 0 0.2 0"/>
<feBlend mode="luminosity" in2="BackgroundImageFix" result="effect1_dropShadow_6_1709"/>
<feBlend mode="normal" in="SourceGraphic" in2="effect1_dropShadow_6_1709" result="shape"/>
</filter>
<linearGradient id="paint0_linear_6_1709" x1="141" y1="0" x2="141" y2="64" gradientUnits="userSpaceOnUse">
<stop stop-color="#FF727B"/>
<stop offset="1" stop-color="#A60E70"/>
</linearGradient>
<linearGradient id="paint1_linear_6_1709" x1="141" y1="0" x2="141" y2="64" gradientUnits="userSpaceOnUse">
<stop stop-color="white"/>
<stop offset="1" stop-color="white" stop-opacity="0.5"/>
</linearGradient>
<linearGradient id="paint2_linear_6_1709" x1="141" y1="-1.75342" x2="141" y2="37.4172" gradientUnits="userSpaceOnUse">
<stop stop-color="white" stop-opacity="0"/>
<stop offset="1" stop-color="white"/>
</linearGradient>
</defs>
</svg>
