<svg width="320" height="81" viewBox="0 0 320 81" fill="none" xmlns="http://www.w3.org/2000/svg">
<path d="M318.729 1C318.775 1.24789 318.83 1.55044 318.893 1.9043C319.088 3.01539 319.358 4.63163 319.659 6.64648C320.261 10.6772 320.983 16.2997 321.465 22.6631C322.431 35.4265 322.415 51.0334 318.608 62.7793C318.26 63.8547 316.962 65.098 314.343 66.3887C311.785 67.6488 308.201 68.841 303.702 69.9531C294.712 72.1753 282.241 74.0353 267.42 75.5264C237.789 78.5074 198.903 80 160 80C121.097 80 82.211 78.5074 52.5801 75.5264C37.7593 74.0353 25.2881 72.1753 16.2979 69.9531C11.7986 68.841 8.21504 67.6488 5.65723 66.3887C3.03754 65.098 1.74036 63.8547 1.3916 62.7793C-2.41526 51.0334 -2.43068 35.4265 -1.46484 22.6631C-0.983294 16.2997 -0.261271 10.6772 0.34082 6.64648C0.641792 4.63163 0.912201 3.01539 1.10742 1.9043C1.1696 1.55044 1.22513 1.24789 1.27051 1H318.729Z" fill="url(#paint0_linear_147_7)" stroke="#FFD700" stroke-width="2"/>
<path d="M0.440354 0H319.56C319.56 0 327.3 37.7514 319.56 60.7506C311.819 83.7498 8.18115 83.7498 0.440354 60.7506C-7.30044 37.7514 0.440354 0 0.440354 0Z" fill="url(#paint1_linear_147_7)"/>
<defs>
<linearGradient id="paint0_linear_147_7" x1="160" y1="0" x2="160" y2="63.0872" gradientUnits="userSpaceOnUse">
<stop stop-color="#F24E4E"/>
<stop offset="1" stop-color="#E03131"/>
</linearGradient>
<linearGradient id="paint1_linear_147_7" x1="160" y1="0" x2="160" y2="60.7506" gradientUnits="userSpaceOnUse">
<stop stop-color="#F24E4E"/>
<stop offset="1" stop-color="#E03131"/>
</linearGradient>
</defs>
</svg>
