<svg width="1080" height="289" viewBox="0 0 1080 289" fill="none" xmlns="http://www.w3.org/2000/svg">
<mask id="path-1-inside-1_305_5" fill="white">
<path d="M0 -105H1080V169C1080 235.274 1026.27 289 960 289H120C53.7258 289 0 235.274 0 169V-105Z"/>
</mask>
<g filter="url(#filter0_i_305_5)">
<path d="M0 -105H1080V169C1080 235.274 1026.27 289 960 289H120C53.7258 289 0 235.274 0 169V-105Z" fill="#AC4ED0"/>
</g>
<path d="M0 -105H1080H0M1080 169C1080 238.036 1024.04 294 955 294H125C55.9644 294 0 238.036 0 169C0 232.513 53.7258 284 120 284H960C1026.27 284 1080 232.513 1080 169ZM1080 169M0 289V-105V289M0 289M1080 -105V289V-105" fill="#DEBA37" mask="url(#path-1-inside-1_305_5)"/>
<defs>
<filter id="filter0_i_305_5" x="0" y="-105" width="1080" height="394" filterUnits="userSpaceOnUse" color-interpolation-filters="sRGB">
<feFlood flood-opacity="0" result="BackgroundImageFix"/>
<feBlend mode="normal" in="SourceGraphic" in2="BackgroundImageFix" result="shape"/>
<feColorMatrix in="SourceAlpha" type="matrix" values="0 0 0 0 0 0 0 0 0 0 0 0 0 0 0 0 0 0 127 0" result="hardAlpha"/>
<feMorphology radius="16" operator="erode" in="SourceAlpha" result="effect1_innerShadow_305_5"/>
<feOffset/>
<feGaussianBlur stdDeviation="24"/>
<feComposite in2="hardAlpha" operator="arithmetic" k2="-1" k3="1"/>
<feColorMatrix type="matrix" values="0 0 0 0 0 0 0 0 0 0 0 0 0 0 0 0 0 0 0.25 0"/>
<feBlend mode="normal" in2="shape" result="effect1_innerShadow_305_5"/>
</filter>
</defs>
</svg>
