<svg width="1080" height="300" viewBox="0 0 1080 300" fill="none" xmlns="http://www.w3.org/2000/svg">
<mask id="path-1-outside-1_361_4" maskUnits="userSpaceOnUse" x="0" y="0.41568" width="1080" height="299" fill="black">
<rect fill="white" y="0.41568" width="1080" height="299"/>
<path d="M0 299.416H1080V155.416C1080 72.573 1012.84 5.41568 930 5.41568H150C67.1573 5.41568 0 72.573 0 155.416V299.416Z"/>
</mask>
<g filter="url(#filter0_i_361_4)">
<path d="M0 299.416H1080V155.416C1080 72.573 1012.84 5.41568 930 5.41568H150C67.1573 5.41568 0 72.573 0 155.416V299.416Z" fill="#AC4ED0"/>
</g>
<path d="M0 299.416H1080H0M1080 155.416C1080 69.8115 1010.6 0.41568 925 0.41568H155C69.3959 0.41568 0 69.8115 0 155.416C0 75.3344 67.1573 10.4157 150 10.4157H930C1012.84 10.4157 1080 75.3344 1080 155.416ZM1080 155.416M0 5.41568V299.416V5.41568M0 5.41568M1080 299.416V5.41568V299.416" fill="#DA7900" mask="url(#path-1-outside-1_361_4)"/>
<path d="M0 298.416H1080V156.416C1080 73.573 1012.84 6.41568 930 6.41568H150C67.1573 6.41568 0 73.573 0 156.416V298.416Z" fill="#F7B666"/>
<defs>
<filter id="filter0_i_361_4" x="0" y="0.41568" width="1080" height="299" filterUnits="userSpaceOnUse" color-interpolation-filters="sRGB">
<feFlood flood-opacity="0" result="BackgroundImageFix"/>
<feBlend mode="normal" in="SourceGraphic" in2="BackgroundImageFix" result="shape"/>
<feColorMatrix in="SourceAlpha" type="matrix" values="0 0 0 0 0 0 0 0 0 0 0 0 0 0 0 0 0 0 127 0" result="hardAlpha"/>
<feMorphology radius="24" operator="erode" in="SourceAlpha" result="effect1_innerShadow_361_4"/>
<feOffset/>
<feGaussianBlur stdDeviation="24"/>
<feComposite in2="hardAlpha" operator="arithmetic" k2="-1" k3="1"/>
<feColorMatrix type="matrix" values="0 0 0 0 0 0 0 0 0 0 0 0 0 0 0 0 0 0 0.25 0"/>
<feBlend mode="normal" in2="shape" result="effect1_innerShadow_361_4"/>
</filter>
</defs>
</svg>
